# xmcd
# Track frame offsets:
# 150
# 11813
# 25401
# 38252
# 58626
# 73346
# 88680
# 103422
# 115493
# 130290
# 142179
# 162371
# 176048
# 189393
#
# Disc length: 2779 seconds
# Revision: 0
# Processed by: cddbd v1.5.2PL0 Copyright (c) Steve Scherf et al.
# Submitted via: VisiTrax 2.10.1.251 - For more info visit www.synapsa.com
#
DISCID=cf0ad90e
DTITLE=Wylie And The Wild West - Bucking Horse Moon
DYEAR=2007
DGENRE=Cowboy
TTITLE0=Whip Out A Yodel
TTITLE1=Out West
TTITLE2=16 Hands
TTITLE3=Bucking Horse Moon
TTITLE4=Rodeo To The Bone
TTITLE5=True Love Travels On A Gravel Road
TTITLE6=Don't Take Your Guns To Town
TTITLE7=Eltopia Yodel
TTITLE8=Where Horses Are Heros
TTITLE9=Jodell
TTITLE10=Old Bull
TTITLE11=The Carhartt Song
TTITLE12=Uber Yodel
TTITLE13=Whispering Hope
EXTD=
EXTT0=
EXTT1=
EXTT2=
EXTT3=
EXTT4=
EXTT5=
EXTT6=
EXTT7=
EXTT8=
EXTT9=
EXTT10=
EXTT11=
EXTT12=
EXTT13=
PLAYORDER=
